<svg xmlns="http://www.w3.org/2000/svg" viewBox="0 0 508 76"><g fill="none" fill-rule="evenodd"><path d="M163.076792 50.2932745h-18.047827V14.2692546h17.834511c7.027543 0 10.75463 4.116549 10.75463 9.2112575 0 3.8083828-1.597096 6.4845229-4.898344 8.1832701 4.046665 1.0808816 7.186935 3.4994499 7.186935 8.5427974 0 6.1755901-5.482784 10.0866949-12.829905 10.0866949zm-2.289383-21.6659263c2.396438 0 3.727088-1.4925365 3.727088-3.8597438 0-2.2131242-1.437705-3.550811-3.83335-3.550811h-6.707964v7.4105548h6.814226zm1.810413 6.8954112h-8.624639v7.8229763h8.784031c2.608962 0 4.099797-1.6466196 4.099797-3.9624659 0-2.4185684-1.59789-3.8605104-4.259189-3.8605104zm22.617432-23.4400008c3.099478 0 5.146288 1.7610463 5.146288 4.5075685 0 2.7457504-2.04681 4.5075684-5.146288 4.5075684-3.099479 0-5.146289-1.761818-5.146289-4.5075684 0-2.7465222 2.04681-4.5075685 5.146289-4.5075685zm-4.648394 38.5971642h9.297612V23.5326461h-9.297612v27.1472767zm39.732858.2128671c0 5.6882769-5.284299 10.07971-12.939656 10.07971-6.321591 0-11.655916-3.1436388-12.544602-8.3830369h8.05041c.642237 1.4469657 2.37032 2.1455521 4.494192 2.1455521 2.913979 0 4.642062-1.6966731 4.642062-4.0911895v-3.093846c-1.23445 1.4982449-3.901244 2.8441385-6.765934 2.8441385-7.160987 0-10.667914-5.2884477-10.667914-10.9261886v-3.5925177c0-5.7878627 3.555481-10.9269318 10.717204-10.9269318 3.556217 0 6.321591 1.8965878 7.112434 3.3435534v-2.7445527h7.901804v25.3453092zm-12.939656-19.1583605c-3.111873 0-4.593508 1.9954303-4.593508 4.6901902v2.4941021c0 2.7445527 1.481635 4.6901902 4.544219 4.6901902 2.814664 0 4.691351-1.69593 4.691351-4.5400685V36.275241c0-2.9942602-2.172426-4.5408116-4.642062-4.5408116zm50.642013 18.5588451l-13.61959-21.0488272v21.0488272h-8.73283V14.2692546h8.472657l13.67147 21.0480607V14.2692546h8.733604v36.0240199zm22.437397-11.6551078v.6208529c0 2.6849776 1.634478 4.6990954 4.745563 4.6990954 2.478814 0 3.902012-1.2386286 4.482444-2.5811174h7.803238c-.948798 5.0083679-6.010889 8.676555-12.285682 8.676555-7.961895 0-13.287104-4.4944524-13.287104-12.2408819v-3.3573759c0-7.5402479 4.692153-12.7063293 13.076609-12.7063293 8.38367 0 12.654834 5.4761233 12.654834 11.9316094v4.9575918h-17.189902zm0-5.0606826h9.06935v-.9816709c0-2.6865162-1.370574-4.6998647-4.481658-4.6998647-3.216332 0-4.587692 2.0133485-4.587692 5.1137667v.5677689zm35.895945-2.9826863h-1.095676c-3.884196 0-5.976143 1.7151875-5.976143 6.5932511v12.8655037h-8.367046V21.9637632h7.918983v4.9315635c.796721-4.1809693 3.386432-5.1463612 7.121522-5.1463612h.39836v8.8458323zm27.208439 19.0739547h-7.82662v-2.8607137c-.783317 1.5086158-3.522379 3.4852357-7.044759 3.4852357-7.240042 0-10.860063-5.8260309-10.860063-12.0162372v-4.473933c0-6.1902063 3.620021-12.0162372 10.860063-12.0162372 3.082265 0 5.527673 1.5086158 6.652736 2.9134029V11.6961103h8.218643v37.9726422zm-8.218643-15.5533872c0-3.4325465-2.151755-5.1495945-4.597893-5.1495945-3.228727 0-4.696263 2.0812234-4.696263 5.3053376v3.5379248c0 3.1210604 1.467536 5.3061125 4.696263 5.3061125 2.446138 0 4.597893-1.7170481 4.597893-5.1495945v-3.8501859zm38.138203 5.4733486h-5.776677v10.7045606h-8.792946V14.2692546h16.819069c8.690906 0 13.39388 5.3522803 13.39388 12.711474 0 5.1460695-2.505308 9.1598965-6.645539 11.1675765l7.310321 12.1449694h-10.22455l-6.083558-10.7045606zm1.226763-18.2178373h-7.00344v11.2189375h7.00344c3.681051 0 5.623617-2.2131242 5.623617-5.5063634 0-3.4480889-1.942566-5.7125741-5.623617-5.7125741zM407.4653 49.673174v-2.272676c-1.519561 1.8079853-4.40703 2.8927765-7.851319 2.8927765-6.078246 0-9.725496-3.5644238-9.725496-8.5221503 0-5.5778271 4.102967-8.4190567 10.283071-8.4190567 3.190777 0 5.622528.9293813 6.939129 2.0141725v-3.1505105c0-2.0141726-1.316601-3.5121077-3.6978-3.5121077-1.773074 0-3.140226.6193312-3.849456 1.9626258h-7.749462c1.113641-5.4231866 5.622529-8.6775602 11.852429-8.6775602 7.547256 0 11.953532 4.183755 11.953532 10.8471425V49.673174H407.4653zm-.354615-8.0566903c0-1.8087547-1.924727-3.1512799-4.558684-3.1512799-2.887469 0-4.710339 1.0332444-4.710339 3.1512799 0 2.0657194 1.923973 3.1497412 4.609236 3.1497412 2.583405 0 4.659787-1.3425252 4.659787-3.1497412zm13.538571 8.6767908v-27.670597h8.436896v3.2210783c1.415257-2.5351735 4.140387-3.8550684 7.651598-3.8550684 6.288642 0 9.642948 4.0666606 9.642948 10.456116v17.8484711h-8.804567V33.8173996c0-2.5343869-1.309873-4.1185754-3.982702-4.1185754-2.253638 0-4.139606 1.0563879-4.139606 4.2247648v16.3696855h-8.804567zm30.073502-12.395855v-3.5113383c0-7.1796251 4.663591-12.3973938 13.121883-12.3973938 7.381728 0 12.456092 4.5968989 12.60956 11.0533298h-7.790975c-.154231-2.2195905-1.640808-4.1837549-4.664353-4.1837549-3.178541 0-4.665881 2.0157112-4.665881 5.0115814v4.5445826c0 2.9951008 1.48734 5.0100427 4.665881 5.0100427 3.023545 0 4.510122-1.9626257 4.664353-4.1837549h7.790975c-.153468 6.4564309-5.227832 11.0525604-12.60956 11.0525604-8.458292 0-13.121883-5.21623-13.121883-12.395855m28.998621 12.395855V11.6961103h8.804567v13.8528276c1.257572-2.1154525 4.087305-3.5961118 7.283927-3.5961118 6.289423 0 9.642949 4.071813 9.642949 10.4693636v17.8710848h-8.804567V33.796525c0-2.5375979-1.309874-4.1237935-3.982703-4.1237935-2.253638 0-4.139606 1.0577262-4.139606 4.2301175v16.3904255h-8.804567z" fill="#FFF"></path><path class="hat" d="M104.799681 22.1608627c-4.339819-.8903872-8.6750827-.9012836-13.2548218-.0342457l-.5185613.0988454-2.7385808-9.8860997c-.2976223-1.100531-3.121238-10.7181135-11.0704869-10.929814-4.4013176-.1237514-7.4435946 1.6881554-9.6674103 3.0112832-1.6741254.9954592-2.6831562 1.523932-3.9632358 1.7278493-.6187811.0996237-1.4038358-.0303541-2.3718676-.4646514-1.8244551-.8187826-5.5500486-2.0150458-9.8253323-1.0686202-4.004994.887274-8.6135843 3.9125667-14.4027938 24.2552677l-.1564035.5502655-.5420978-.1416525c-3.7688702-.9806712-7.4086696-1.4655586-10.8358815-1.4655586-6.0427958 0-11.4258115 1.5099223-15.6965397 4.4783984-5.3465722 3.7156543-8.4716064 9.4035472-8.7995983 16.0145164-.268012 5.4100362 1.7978816 10.89946 5.6692493 15.0595295 4.5076114 4.8449827 11.0021553 7.5122527 18.2863094 7.5122527 10.8829544-.0412505 21.8425922-9.0813267 33.4453067-18.6514323 14.4650515-11.9307213 29.4220909-24.2661641 44.698771-21.135021 6.635762 1.3620433 13.350486 6.8179998 12.412065 15.5794408-.465415 4.3460857-4.590369 8.2960114-10.264174 9.8285047-3.212347.8693728-14.3655908 2.7528842-22.956398-9.4588072l-2.6998595-3.8285092c-2.2716478 1.4577755-4.6746442 3.1560489-7.3175606 5.1679815l2.8099493 3.9872846c9.4586192 13.4445352 22.9541204 15.4992749 32.4294428 12.94019 9.34777-2.5263958 15.954682-9.4510241 16.830845-17.6411853 1.479001-13.815011-8.690267-23.2878278-19.500335-25.5060126zm-22.7438106 2.938122C71.5920168 29.619412 62.0324186 37.5044754 52.7863869 45.1303615l-.0007593.0007783C42.4295862 53.672319 32.6482898 61.7410637 24.992867 61.7698612h-.0356843c-4.8621766 0-9.0873505-1.6655845-11.9026145-4.6908773-2.1942053-2.3575024-3.3695097-5.3859085-3.2237355-8.3092426.1860139-3.7444517 1.8836759-6.835901 4.910768-8.9388959 4.5584805-3.1685019 11.3886087-3.7934852 19.2300454-1.7620949l.5588011.1447658-.1389411.5743931c-.8875522 3.6603942-1.7933262 7.6430089-2.6915078 11.8365457l-.7607591 3.4977273c2.8304489-1.5301584 6.2424761-3.7662444 10.6954221-7.274868.2133466-.9316377 1.3985211-5.6886713 1.6209786-6.5634923 5.5379008-21.8020331 8.1861319-25.8157802 10.0379197-26.6874879 1.7963632-.8452452 3.9723467.1875728 5.0945043.6179785 1.5040556.5775064 3.2654937 1.3635999 6.3001783.9736664 3.1440152-.4039431 5.4543843-1.7784394 7.3107275-2.8836403l.7630368-.4615381c1.6414781-1.0016856 2.9375018-1.794784 4.3458931-1.3067833 1.2405991.428849 2.2253341 2.8548428 2.6125468 4.2199994l2.8076717 10.1390506-.4722477.2039173z" fill="#BA6624"></path><path d="M339.5 71l1.242188-3.4375h4.539062L346.445312 71h1.703126l-4.164063-11.4765625h-1.757813L337.90625 71H339.5zm5.28125-4.703125h-3.59375l1.851562-5.0703125 1.742188 5.0703125zm10.460938 8.0390625V70.0625c.307291.3802083.585937.6484375.835937.8046875.427083.2760417.955729.4140625 1.585937.4140625.802084 0 1.505209-.2473958 2.109376-.7421875.953124-.78125 1.429687-2.0833333 1.429687-3.90625 0-1.3489583-.330729-2.3867187-.992187-3.1132813-.661459-.7265624-1.466146-1.0898437-2.414063-1.0898437-.640625 0-1.197917.15625-1.671875.46875-.333333.2083333-.640625.5026042-.921875.8828125v-1.109375h-1.367187v11.6640625h1.40625zm2.234374-4.28125c-.96875 0-1.635416-.4322917-2-1.296875-.192708-.453125-.289062-1.0026042-.289062-1.6484375 0-.8020833.096354-1.4635417.289062-1.984375.359376-.9739583 1.026042-1.4609375 2-1.4609375.96875 0 1.635417.4609375 2 1.3828125.192709.4791667.289063 1.0520833.289063 1.71875 0 1.09375-.217448 1.9153646-.652344 2.4648438-.434896.5494791-.980469.8242187-1.636719.8242187zM364.789062 71v-4.8125c0-.59375.190105-1.1184896.570313-1.5742188.380208-.4557291.924479-.6835937 1.632813-.6835937.083333 0 .160156.0026042.230468.0078125.070313.0052083.147136.015625.230469.03125v-1.484375c-.151042-.015625-.257813-.0260417-.320313-.03125-.0625-.0052083-.10677-.0078125-.132812-.0078125-.557292 0-1.049479.2018229-1.476562.6054687-.427084.4036459-.695313.7460938-.804688 1.0273438v-1.4453125h-1.335938V71h1.40625zm7.570313.3046875c1.380208 0 2.398437-.4401042 3.054687-1.3203125s.984376-1.9947917.984376-3.34375c0-1.3958333-.372396-2.453125-1.117188-3.171875-.744792-.71875-1.65625-1.078125-2.734375-1.078125-1.203125 0-2.161458.4166667-2.875 1.25-.713542.8333333-1.070313 1.953125-1.070313 3.359375 0 1.3125.338542 2.3580729 1.015626 3.1367188.677083.7786458 1.591145 1.1679687 2.742187 1.1679687zm.132813-1.2109375c-.848959 0-1.46875-.296875-1.859376-.890625-.390624-.59375-.585937-1.3359375-.585937-2.2265625 0-.9270833.195313-1.71875.585937-2.375.390626-.65625 1.015626-.984375 1.875-.984375.96875 0 1.651042.3854167 2.046876 1.15625.25.4895833.375 1.125.375 1.90625 0 .8645833-.173178 1.6497396-.519532 2.3554687-.346354.7057292-.985677 1.0585938-1.917968 1.0585938zm7.484374-8.9453125v-1.625h-1.40625v1.625h1.40625zM377.8125 74.375c.916667 0 1.539062-.2552083 1.867188-.765625.197916-.3020833.296874-.7578125.296874-1.3671875V62.671875h-1.40625v9.421875c0 .4791667-.063802.7643229-.191406.8554688-.127604.0911458-.50651.1471354-1.136718.1679687v1.21875c.161458.015625.279947.0260417.355468.03125.075521.0052083.147136.0078125.214844.0078125zm8.078125-3.078125c.427083 0 .809896-.0416667 1.148437-.125.630209-.1458333 1.158855-.4270833 1.585938-.84375.255208-.2395833.485677-.5481771.691406-.9257812.205729-.3776042.326823-.7200521.363282-1.0273438h-1.382813c-.104167.3697917-.28125.6953125-.53125.9765625-.4375.484375-1.023437.7265625-1.757813.7265625-.786458 0-1.367187-.2565104-1.742187-.7695312-.375-.5130209-.575521-1.1940105-.601563-2.0429688h6.132813c0-.84375-.041667-1.4583333-.125-1.84375-.09375-.5625-.28125-1.0546875-.5625-1.4765625-.291667-.4427083-.716146-.8033854-1.273437-1.0820313-.557292-.2786458-1.132813-.4179687-1.726563-.4179687-1.177083 0-2.130208.4192708-2.859375 1.2578125-.729167.8385417-1.09375 1.9296875-1.09375 3.2734375 0 1.3645833.361979 2.4257813 1.085938 3.1835937.723958.7578126 1.60677 1.1367188 2.648437 1.1367188zm2.460937-5.1484375h-4.648437c.026042-.71875.257813-1.3111979.695313-1.7773437.4375-.4661459.979166-.6992188 1.625-.6992188.901041 0 1.54427.3385417 1.929687 1.015625.208333.3645833.341146.8515625.398437 1.4609375zM393.34375 71v-3.140625l1.179688-1.078125L397.132812 71h1.796876l-3.382813-5.234375L398.75 62.6328125h-1.796875L393.34375 66.1875v-6.6640625h-1.351562V71h1.351562zm9.148438.1328125c.203124 0 .391927-.0104167.566406-.03125.174479-.0208333.342448-.0546875.503906-.1015625v-1.109375c-.104167.0104167-.195312.0169271-.273438.0195312-.078124.0026042-.151041.0039063-.21875.0039063-.255208 0-.4375-.0286458-.546874-.0859375-.197917-.0989583-.296876-.2942708-.296876-.5859375V63.78125h1.335938v-1.1484375h-1.335938V60.296875h-1.421874v2.3359375h-1.132813V63.78125h1.132813v5.5390625c0 .5364583.117187.9726563.351562 1.3085937.234375.3359376.679688.5039063 1.335938.5039063zM412.617188 71v-1.328125h-6.109376c.135417-.5520833.463542-1.0546875.984376-1.5078125.291666-.2552083.692708-.5234375 1.203124-.8046875l1.070313-.59375c.942708-.5260417 1.596354-.9739583 1.960937-1.34375.630209-.6354167.945313-1.4010417.945313-2.296875 0-.8489583-.295573-1.6197917-.886719-2.3125-.591146-.6927083-1.527344-1.0390625-2.808594-1.0390625-1.541666 0-2.617187.5416667-3.226562 1.625-.34375.6145833-.523438 1.4088542-.539062 2.3828125h1.429687c.020833-.6927083.130208-1.234375.328125-1.625.369792-.7291667 1.036458-1.09375 2-1.09375.651042 0 1.171875.1914062 1.5625.5742188.390625.3828124.585938.8997395.585938 1.5507812 0 .5572917-.213542 1.0520833-.640626 1.484375-.270833.2760417-.742187.609375-1.414062 1l-1.5.8671875c-1.005208.5833333-1.68099 1.2317708-2.027344 1.9453125-.346354.7135417-.545573 1.5520833-.597656 2.515625h7.679688zm5.539062.3046875c1.489583 0 2.5625-.7135417 3.21875-2.140625.453125-.9947917.679688-2.2526042.679688-3.7734375 0-1.6041667-.25-2.8671875-.75-3.7890625-.645834-1.1927083-1.692709-1.7890625-3.140626-1.7890625-1.609374 0-2.721354.8489583-3.335937 2.546875-.328125.9114583-.492187 2.0026042-.492187 3.2734375 0 1.640625.273437 2.9479167.820312 3.921875.65625 1.1666667 1.65625 1.75 3 1.75zm-.007812-1.28125c-.90625 0-1.546876-.5286458-1.921876-1.5859375-.244791-.6927083-.367187-1.609375-.367187-2.75 0-1.515625.191406-2.6627604.574219-3.4414062.382812-.7786459.988281-1.1679688 1.816406-1.1679688.901042 0 1.507812.4101562 1.820312 1.2304688.3125.8203124.46875 1.8658854.46875 3.1367187 0 1.7604167-.216145 2.9635417-.648437 3.609375s-1.013021.96875-1.742187.96875zM431.414062 71v-1.328125h-6.109374c.135416-.5520833.463541-1.0546875.984374-1.5078125.291667-.2552083.692709-.5234375 1.203126-.8046875l1.070312-.59375c.942708-.5260417 1.596354-.9739583 1.960938-1.34375.630208-.6354167.945312-1.4010417.945312-2.296875 0-.8489583-.295573-1.6197917-.886719-2.3125-.591146-.6927083-1.527343-1.0390625-2.808593-1.0390625-1.541667 0-2.617188.5416667-3.226563 1.625-.34375.6145833-.523437 1.4088542-.539063 2.3828125h1.429688c.020833-.6927083.130208-1.234375.328125-1.625.369792-.7291667 1.036458-1.09375 2-1.09375.651042 0 1.171875.1914062 1.5625.5742188.390625.3828124.585937.8997395.585937 1.5507812 0 .5572917-.213541 1.0520833-.640624 1.484375-.270834.2760417-.742188.609375-1.414063 1l-1.5.8671875c-1.005208.5833333-1.68099 1.2317708-2.027344 1.9453125-.346354.7135417-.545573 1.5520833-.597656 2.515625h7.679687zm10.21875.2421875c.973959 0 1.773438-.2565104 2.398438-.7695313.625-.5130208 1.015625-1.3242187 1.171875-2.4335937h-1.367187c-.130209.6197917-.365886 1.1080729-.707032 1.4648437-.341146.3567709-.803385.5351563-1.386718.5351563-.760417 0-1.317709-.2864583-1.671876-.859375-.354166-.5729167-.53125-1.2786458-.53125-2.1171875 0-.8333333.125-1.5338542.375-2.1015625.385417-.875 1.026042-1.3125 1.921876-1.3125.65625 0 1.132812.1705729 1.429687.5117187.296875.3411459.486979.7695313.570313 1.2851563h1.367187c-.119792-1.1197917-.47526-1.9088542-1.066406-2.3671875-.591146-.4583333-1.358073-.6875-2.300781-.6875-1.104167 0-2.013021.4088542-2.726563 1.2265625-.713542.8177083-1.070313 1.9609375-1.070313 3.4296875 0 1.1979167.325521 2.1966146.976563 2.9960938.651042.7994791 1.523437 1.1992187 2.617187 1.1992187zm8.664063.0625c1.380208 0 2.398437-.4401042 3.054687-1.3203125s.984376-1.9947917.984376-3.34375c0-1.3958333-.372396-2.453125-1.117188-3.171875-.744792-.71875-1.65625-1.078125-2.734375-1.078125-1.203125 0-2.161458.4166667-2.875 1.25-.713542.8333333-1.070313 1.953125-1.070313 3.359375 0 1.3125.338542 2.3580729 1.015626 3.1367188.677083.7786458 1.591145 1.1679687 2.742187 1.1679687zm.132813-1.2109375c-.848959 0-1.46875-.296875-1.859376-.890625-.390624-.59375-.585937-1.3359375-.585937-2.2265625 0-.9270833.195313-1.71875.585937-2.375.390626-.65625 1.015626-.984375 1.875-.984375.96875 0 1.651042.3854167 2.046876 1.15625.25.4895833.375 1.125.375 1.90625 0 .8645833-.173178 1.6497396-.519532 2.3554687-.346354.7057292-.985677 1.0585938-1.917968 1.0585938zM457.914062 71v-4.4375c0-1.078125.217448-1.8229167.652344-2.234375.434896-.4114583.917969-.6171875 1.449219-.6171875.583333 0 .981771.1953125 1.195313.5859375.135416.2604167.203124.6744792.203124 1.2421875V71h1.429688v-4.8671875c0-.8645833.199219-1.4817708.597656-1.8515625.398438-.3697917.873698-.5546875 1.425782-.5546875.401041 0 .740885.1041667 1.019531.3125.278646.2083333.417969.5911458.417969 1.1484375V71h1.460937v-5.5703125c0-.7395833-.109375-1.328125-.328125-1.765625-.40625-.8125-1.171875-1.21875-2.296875-1.21875-.526042 0-1 .1080729-1.421875.3242187-.421875.2161459-.789062.5481771-1.101562.9960938-.1875-.3645833-.395834-.640625-.625-.828125-.40625-.328125-.942709-.4921875-1.609376-.4921875-.588541 0-1.114583.1588542-1.578124.4765625-.270834.1875-.572917.4869792-.90625.8984375v-1.1875h-1.390626V71h1.40625zm13.71875 3.3359375V70.0625c.307292.3802083.585938.6484375.835938.8046875.427083.2760417.955729.4140625 1.585938.4140625.802083 0 1.505208-.2473958 2.109374-.7421875.953126-.78125 1.429688-2.0833333 1.429688-3.90625 0-1.3489583-.330729-2.3867187-.992188-3.1132813-.661458-.7265624-1.466145-1.0898437-2.414062-1.0898437-.640625 0-1.197917.15625-1.671875.46875-.333333.2083333-.640625.5026042-.921875.8828125v-1.109375h-1.367188v11.6640625h1.40625zm2.234376-4.28125c-.96875 0-1.635417-.4322917-2-1.296875-.192709-.453125-.289063-1.0026042-.289063-1.6484375 0-.8020833.096354-1.4635417.289063-1.984375.359374-.9739583 1.026041-1.4609375 2-1.4609375.96875 0 1.635416.4609375 2 1.3828125.192708.4791667.289062 1.0520833.289062 1.71875 0 1.09375-.217448 1.9153646-.652344 2.4648438-.434896.5494791-.980468.8242187-1.636718.8242187zm8.117187 1.2265625c.645833 0 1.236979-.1380208 1.773437-.4140625.536459-.2760417.947917-.6015625 1.234376-.9765625.046874.3333333.127604.5911458.242187.7734375.21875.34375.570313.515625 1.054687.515625.197917 0 .354167-.0078125.46875-.0234375.114584-.015625.28125-.0546875.5-.1171875V70c-.088541.015625-.171874.0273438-.25.0351562-.078124.0078126-.148437.0117188-.210937.0117188-.192708 0-.31901-.0442708-.378906-.1328125-.059896-.0885417-.089844-.2057292-.089844-.3515625v-4.8203125c0-.7916667-.304687-1.375-.914063-1.75-.614583-.375-1.414062-.5625-2.398437-.5625-.848958 0-1.595052.2018229-2.238281.6054687-.643229.4036459-.977865 1.1210938-1.003906 2.1523438h1.3125c.052083-.4322917.164062-.7578125.335937-.9765625.307292-.3958333.828125-.59375 1.5625-.59375.635417 0 1.123698.1080729 1.464844.3242187.341146.2161459.511719.5638021.511719 1.0429688 0 .234375-.03125.4140625-.09375.5390625-.109376.2291667-.325521.3645833-.648438.40625l-2.242188.28125c-.786458.0989583-1.421874.3619792-1.90625.7890625-.484374.4270833-.726562 1.0286458-.726562 1.8046875 0 .7083333.246094 1.2981771.738281 1.7695313.492188.4713541 1.126302.7070312 1.902344.7070312zm.328125-1.1953125c-.40625 0-.757812-.1171875-1.054688-.3515625-.296874-.234375-.445312-.5546875-.445312-.9609375 0-.5364583.216146-.9270833.648438-1.171875.255208-.1458333.63802-.2526042 1.148437-.3203125l.851563-.109375c.260416-.03125.526041-.0833333.796874-.15625.270834-.0729167.492188-.1640625.664063-.2734375V67.875c0 .8645833-.390625 1.4869792-1.171875 1.8671875-.463542.2291667-.942708.34375-1.4375.34375zM490.539062 71v-4.3828125c0-.546875.035157-.9674479.105469-1.2617187.070313-.2942709.222657-.5794271.457031-.8554688.291667-.34375.630209-.5729167 1.015626-.6875.213541-.0677083.486979-.1015625.820312-.1015625.65625 0 1.109375.2604167 1.359375.78125.151042.3125.226563.7239583.226563 1.234375V71h1.429687v-5.3671875c0-.84375-.114583-1.4921875-.34375-1.9453125-.416667-.828125-1.21875-1.2421875-2.40625-1.2421875-.541667 0-1.033854.1067708-1.476563.3203125-.442708.2135417-.861979.5651042-1.257812 1.0546875v-1.1875h-1.335938V71h1.40625zm8.734376 3.4296875c.8125 0 1.385416-.234375 1.71875-.703125.333333-.46875.90625-1.7708333 1.71875-3.90625.34375-.90625.770833-2.078125 1.28125-3.515625.682291-1.9114583 1.122395-3.1354167 1.320312-3.671875h-1.554688l-2.257812 6.8125-2.242188-6.8125h-1.59375l3.09375 8.609375c-.072916.1875-.190104.4739583-.351562.859375-.121094.2890625-.204102.4814453-.249023.5771484l-.032227.0634766c-.083333.125-.186198.2304687-.308594.3164063-.122396.0859374-.313802.1289062-.574218.1289062-.083334 0-.179688-.0078125-.289063-.0234375-.109375-.015625-.286458-.0572917-.53125-.125v1.28125c.15625.0416667.28776.0703125.394531.0859375s.259115.0234375.457032.0234375z" fill="#FFF" fill-rule="nonzero"></path></g></svg>
